HIERARCHY
ROOT Hips
{
 OFFSET 0.000000 0.000000 0.000000
 CHANNELS 6 Xposition Yposition Zposition Yrotation Xrotation Zrotation
 JOINT Chest
 {
  OFFSET 0.000000 9.585900 0.002600
  CHANNELS 3 Yrotation Xrotation Zrotation
  JOINT Chest2
  {
   OFFSET 0.000000 9.601200 -0.005300
   CHANNELS 3 Yrotation Xrotation Zrotation
   JOINT Chest3
   {
    OFFSET 0.000000 9.561800 0.000000
    CHANNELS 3 Yrotation Xrotation Zrotation
    JOINT Chest4
    {
     OFFSET 0.000000 9.552100 0.000000
     CHANNELS 3 Yrotation Xrotation Zrotation
     JOINT Neck
     {
      OFFSET 0.000000 14.453000 0.000000
      CHANNELS 3 Yrotation Xrotation Zrotation
      JOINT Head
      {
       OFFSET 0.000000 8.936500 -0.011300
       CHANNELS 3 Yrotation Xrotation Zrotation
       End Site
       {
        OFFSET 0.000000 17.073600 -0.006000
       }
      }
     }
     JOINT RightCollar
     {
      OFFSET -2.921100 9.558500 0.000000
      CHANNELS 3 Yrotation Xrotation Zrotation
      JOINT RightShoulder
      {
       OFFSET -13.519700 0.000000 0.000000
       CHANNELS 3 Yrotation Xrotation Zrotation
       JOINT RightElbow
       {
        OFFSET 0.000000 -29.696600 0.000000
        CHANNELS 3 Yrotation Xrotation Zrotation
        JOINT RightWrist
        {
         OFFSET 0.000000 -24.004700 0.000000
         CHANNELS 3 Yrotation Xrotation Zrotation
         End Site
         {
          OFFSET 0.000000 -17.728500 0.000000
         }
        }
       }
      }
     }
     JOINT LeftCollar
     {
      OFFSET 2.921100 9.558500 0.000000
      CHANNELS 3 Yrotation Xrotation Zrotation
      JOINT LeftShoulder
      {
       OFFSET 13.519700 0.000000 0.000000
       CHANNELS 3 Yrotation Xrotation Zrotation
       JOINT LeftElbow
       {
        OFFSET 0.000000 -29.696600 0.000000
        CHANNELS 3 Yrotation Xrotation Zrotation
        JOINT LeftWrist
        {
         OFFSET 0.000000 -24.004700 0.000000
         CHANNELS 3 Yrotation Xrotation Zrotation
         End Site
         {
          OFFSET 0.000000 -17.728500 0.000000
         }
        }
       }
      }
     }
    }
   }
  }
 }
 JOINT RightHip
 {
  OFFSET -7.771700 -0.012900 -0.001300
  CHANNELS 3 Yrotation Xrotation Zrotation
  JOINT RightKnee
  {
   OFFSET 0.000000 -40.869800 0.001200
   CHANNELS 3 Yrotation Xrotation Zrotation
   JOINT RightAnkle
   {
    OFFSET 0.000000 -39.717900 0.002100
    CHANNELS 3 Yrotation Xrotation Zrotation
    JOINT RightToe
    {
     OFFSET 0.000000 -4.965400 11.033500
     CHANNELS 3 Yrotation Xrotation Zrotation
     End Site
     {
      OFFSET 0.000000 -1.423100 5.872300
     }
    }
   }
  }
 }
 JOINT LeftHip
 {
  OFFSET 7.771700 -0.012900 -0.001300
  CHANNELS 3 Yrotation Xrotation Zrotation
  JOINT LeftKnee
  {
   OFFSET 0.000000 -40.869800 0.001200
   CHANNELS 3 Yrotation Xrotation Zrotation
   JOINT LeftAnkle
   {
    OFFSET 0.000000 -39.717900 0.002100
    CHANNELS 3 Yrotation Xrotation Zrotation
    JOINT LeftToe
    {
     OFFSET 0.000000 -4.965400 11.033500
     CHANNELS 3 Yrotation Xrotation Zrotation
     End Site
     {
      OFFSET 0.000000 -1.423100 5.872300
     }
    }
   }
  }
 }
}
MOTION
Frames: 13
Frame Time: 0.008333
-79.172383 50.168795 -6.118734 164.530659 -15.509880 -0.252020 2.925566 12.446630 1.521735 0.200563 0.966381 0.035952 0.342055 1.646570 0.061284 2.429156 11.360653 0.643894 2.091261 19.944749 0.189297 3.763080 1.263376 -0.287118 4.190654 6.866788 -1.192984 -4.381963 -14.881984 -5.638489 -36.326985 -77.651696 56.850320 0.330752 6.878586 -26.910678 -6.953252 2.649253 -0.103953 18.199532 -10.006734 3.923345 59.969435 -78.521028 -85.114177 4.614131 -1.268686 24.864940 -1.450046 -65.618977 -1.497610 -116.104810 79.933722 -117.642925 -4.859732 -15.236133 2.859830 -0.250188 0.822767 -0.115647 -5.417237 -69.287414 22.149773 111.041967 78.135691 108.237050 -15.272175 -21.272512 0.389053 -0.342118 -0.923429 -0.166375
-79.172975 50.168229 -6.121488 164.514154 -15.522706 -0.249950 2.940493 12.457472 1.523671 0.200923 0.967282 0.035741 0.343631 1.645261 0.060076 2.428675 11.364020 0.642407 2.090002 19.945844 0.190241 3.736327 1.268539 -0.295259 4.194755 6.840984 -1.209950 -4.359969 -14.881780 -5.647669 -35.937911 -77.716642 56.429145 0.231916 6.870231 -26.901224 -6.958457 2.623005 -0.093644 18.171662 -10.008961 3.925835 59.823489 -78.541218 -84.960604 4.615137 -1.263457 24.876478 -1.438109 -65.609230 -1.494109 -116.122023 79.936190 -117.660053 -4.859127 -15.230644 2.859934 -0.253480 0.818705 -0.116261 -5.418748 -69.274548 22.164543 111.128757 78.143985 108.320073 -15.239998 -21.293916 0.389874 -0.351405 -0.924612 -0.170350
-79.173820 50.167471 -6.124004 164.509788 -15.534680 -0.249550 2.946849 12.465564 1.521673 0.200953 0.967958 0.035689 0.340749 1.643308 0.063014 2.427914 11.367617 0.641568 2.087000 19.949543 0.185045 3.728059 1.269101 -0.294831 4.198066 6.836235 -1.213479 -4.334781 -14.902430 -5.672941 -35.803800 -77.717449 56.267868 0.302561 6.885797 -26.923365 -6.964980 2.603600 -0.091441 18.170689 -9.995582 3.931443 59.785913 -78.555312 -84.925813 4.606341 -1.260753 24.871948 -1.434943 -65.598387 -1.493710 -116.137699 79.937023 -117.672366 -4.865288 -15.230813 2.853754 -0.247663 0.818689 -0.111746 -5.426349 -69.260211 22.174969 111.179318 78.147688 108.360906 -15.211575 -21.309754 0.394270 -0.371508 -0.926692 -0.175464
-79.175566 50.166481 -6.126142 164.516928 -15.544547 -0.246751 2.938063 12.469488 1.518167 0.200716 0.968175 0.035546 0.340508 1.646176 0.062043 2.428082 11.369838 0.641365 2.079991 19.948759 0.182004 3.720675 1.274525 -0.297939 4.202873 6.817925 -1.234901 -4.318822 -14.907816 -5.682460 -35.629177 -77.734586 56.066429 0.319863 6.900953 -26.934558 -6.988282 2.564910 -0.085215 18.153061 -9.982255 3.940186 59.673676 -78.599385 -84.797514 4.590778 -1.253366 24.855762 -1.427908 -65.590938 -1.510410 -116.173703 79.936065 -117.707779 -4.861643 -15.232766 2.854171 -0.251664 0.817093 -0.112392 -5.431246 -69.248748 22.171603 111.187204 78.148208 108.362528 -15.208620 -21.308737 0.394313 -0.358171 -0.947941 -0.170956
-79.174917 50.165307 -6.126754 164.528024 -15.551398 -0.260071 2.927422 12.463401 1.527487 0.199517 0.973305 0.035784 0.341955 1.650022 0.062408 2.422576 11.368205 0.639147 2.076740 19.952566 0.179791 3.719113 1.278088 -0.300916 4.211444 6.791446 -1.272774 -4.308051 -14.896714 -5.672890 -35.415358 -77.767564 55.826238 0.289925 6.910176 -26.929313 -6.995005 2.549374 -0.082239 18.093949 -9.997047 3.946228 59.529908 -78.657577 -84.607844 4.602089 -1.254509 24.866806 -1.453252 -65.582068 -1.489478 -116.169172 79.931480 -117.701363 -4.858081 -15.237188 2.854799 -0.254189 0.819584 -0.112121 -5.488673 -69.238110 22.219295 111.176842 78.144350 108.338840 -15.185048 -21.302758 0.388121 -0.344093 -0.965779 -0.163604
-79.178857 50.162942 -6.124025 164.567192 -15.532836 -0.258537 2.887621 12.437381 1.513744 0.199794 0.969242 0.035568 0.340827 1.651305 0.062635 2.414507 11.373129 0.639632 2.068257 19.956075 0.173294 3.720918 1.283165 -0.305148 4.225365 6.779146 -1.301923 -4.303617 -14.897724 -5.671091 -35.270681 -77.782547 55.663384 0.248466 6.910698 -26.923878 -6.997490 2.534964 -0.081807 18.092852 -9.981669 3.950838 59.514071 -78.724673 -84.603495 4.606235 -1.252730 24.873929 -1.462923 -65.601214 -1.518061 -116.174431 79.926911 -117.707229 -4.860472 -15.246773 2.854177 -0.250063 0.827931 -0.109342 -5.525131 -69.257430 22.222179 111.060845 78.117743 108.204926 -15.243184 -21.254689 0.381791 -0.347026 -1.001001 -0.145604
-79.180312 50.161445 -6.123308 164.583469 -15.532688 -0.260857 2.871383 12.432402 1.510948 0.200596 0.968803 0.034990 0.339834 1.652938 0.063435 2.412917 11.376400 0.640283 2.064493 19.957458 0.170950 3.711510 1.286183 -0.309612 4.231466 6.764951 -1.325130 -4.298507 -14.899677 -5.674607 -35.176106 -77.790910 55.560568 0.269014 6.929339 -26.928547 -6.999749 2.525989 -0.081184 18.056338 -9.995543 3.956930 59.444780 -78.792266 -84.512894 4.600943 -1.237581 24.876332 -1.469708 -65.602032 -1.524542 -116.176972 79.923330 -117.708558 -4.864429 -15.249983 2.857664 -0.248658 0.831653 -0.111573 -5.548822 -69.256731 22.243671 111.014645 78.111397 108.146454 -15.299380 -21.217696 0.382407 -0.311876 -1.026823 -0.128511
-79.182305 50.160304 -6.123523 164.605691 -15.538999 -0.259391 2.848210 12.437613 1.503348 0.203173 0.966051 0.033279 0.337229 1.656088 0.065278 2.412115 11.378705 0.640230 2.062118 19.957745 0.169829 3.709588 1.286485 -0.310668 4.234295 6.749527 -1.348443 -4.293110 -14.897396 -5.676680 -35.174502 -77.782204 55.552799 0.309994 6.949090 -26.935136 -7.003543 2.517249 -0.079571 18.024537 -10.009046 3.963387 59.393931 -78.867669 -84.441042 4.571373 -1.213129 24.871671 -1.467434 -65.596637 -1.548161 -116.202993 79.921981 -117.730569 -4.872030 -15.254828 2.856560 -0.242213 0.833878 -0.109312 -5.545543 -69.251573 22.228586 110.959043 78.103915 108.085305 -15.351490 -21.181871 0.384169 -0.309971 -1.043283 -0.119537
-79.184272 50.159378 -6.123937 164.624922 -15.547852 -0.256580 2.831694 12.442275 1.493584 0.202212 0.967576 0.034673 0.337633 1.656918 0.064501 2.409458 11.381540 0.642583 2.059839 19.959444 0.167112 3.707652 1.284657 -0.309256 4.234488 6.742302 -1.360034 -4.285758 -14.901864 -5.687769 -35.163549 -77.782064 55.553565 0.323338 6.966061 -26.947388 -7.020559 2.495423 -0.072227 18.009673 -10.007934 3.969630 59.366712 -78.947215 -84.396760 4.561185 -1.186910 24.867672 -1.460422 -65.589188 -1.574292 -116.240396 79.920333 -117.766426 -4.872516 -15.261286 2.860958 -0.243548 0.835924 -0.111428 -5.539755 -69.244466 22.205603 110.917962 78.093381 108.038972 -15.368452 -21.152004 0.381472 -0.347309 -1.029500 -0.127964
-79.184521 50.159097 -6.125616 164.642740 -15.567901 -0.261339 2.819765 12.454731 1.490787 0.198189 0.974016 0.039155 0.341721 1.655070 0.060959 2.407840 11.387480 0.644342 2.055496 19.958441 0.166555 3.704535 1.283477 -0.309644 4.231583 6.734564 -1.369164 -4.283336 -14.902652 -5.686546 -35.173100 -77.781730 55.580501 0.330873 6.977203 -26.930191 -7.031407 2.483857 -0.064431 17.988070 -10.016004 3.972528 59.389469 -79.034642 -84.409146 4.603712 -1.159668 24.878868 -1.472261 -65.570275 -1.578345 -116.274517 79.911337 -117.801810 -4.859921 -15.267302 2.867738 -0.250019 0.833540 -0.115786 -5.526124 -69.227901 22.179899 110.899246 78.093046 108.026398 -15.372660 -21.140758 0.378320 -0.312634 -1.019453 -0.123298
-79.185512 50.158173 -6.124461 164.653256 -15.570221 -0.264710 2.810249 12.456297 1.490452 0.199564 0.972699 0.036066 0.342430 1.656121 0.062601 2.409227 11.394900 0.645605 2.050423 19.952195 0.166974 3.698302 1.279997 -0.313128 4.232269 6.715937 -1.391994 -4.288047 -14.894918 -5.672829 -35.218776 -77.772732 55.633525 0.323958 6.977826 -26.908633 -7.046190 2.471402 -0.055760 17.976031 -10.023621 3.978546 59.489863 -79.117712 -84.511475 4.563437 -1.132340 24.860399 -1.484239 -65.569148 -1.576018 -116.285238 79.909496 -117.812902 -4.855021 -15.271169 2.867823 -0.252610 0.835532 -0.116509 -5.489768 -69.228113 22.139407 110.861095 78.097798 107.994324 -15.349764 -21.144634 0.378558 -0.319505 -0.995792 -0.125274
-79.186284 50.158661 -6.127947 164.650840 -15.600993 -0.259076 2.813103 12.485287 1.486127 0.199797 0.973165 0.036152 0.342182 1.657006 0.063128 2.410240 11.397804 0.645240 2.046969 19.949669 0.167858 3.688542 1.276025 -0.313797 4.227056 6.701219 -1.413730 -4.287947 -14.891924 -5.672948 -35.282852 -77.751177 55.701864 0.317560 6.975246 -26.888499 -7.059639 2.466505 -0.046548 17.968680 -10.030004 3.984032 59.646500 -79.199678 -84.674700 4.519472 -1.109084 24.835140 -1.470219 -65.539048 -1.589272 -116.334801 79.912885 -117.861139 -4.862638 -15.280026 2.866448 -0.250692 0.838178 -0.115297 -5.386006 -69.203551 22.039007 110.879970 78.111389 108.041989 -15.328029 -21.171036 0.380324 -0.323439 -0.971200 -0.131149
-79.186462 50.158506 -6.128331 164.649624 -15.614550 -0.262698 2.818141 12.495217 1.490398 0.200039 0.971910 0.032897 0.340615 1.660667 0.067149 2.410228 11.402213 0.642793 2.046222 19.945946 0.171114 3.679068 1.272982 -0.311308 4.219586 6.689303 -1.430044 -4.281970 -14.889395 -5.677604 -35.420602 -77.731964 55.858864 0.321878 6.985997 -26.903991 -7.069682 2.463204 -0.036066 17.960855 -10.037473 3.992471 59.777769 -79.256035 -84.807490 4.481769 -1.100527 24.810140 -1.488717 -65.526731 -1.569318 -116.350276 79.917461 -117.879152 -4.868398 -15.279006 2.863733 -0.247050 0.836383 -0.114181 -5.379618 -69.190008 22.035957 110.913660 78.118496 108.078949 -15.322075 -21.193799 0.387503 -0.330232 -0.952667 -0.139001
